<svg width="80" height="80" viewBox="0 0 80 80" fill="none" xmlns="http://www.w3.org/2000/svg">
<path d="M37.5366 8C35.7244 8 34.1386 9.21832 33.6716 10.9694L18.4634 68H10C8.89544 68 8 68.8956 8 70C8 71.1044 8.89544 72 10 72H70C71.1044 72 72 71.1044 72 70C72 68.8956 71.1044 68 70 68H61.5364L46.3284 10.9694C45.8616 9.21832 44.2756 8 42.4636 8H37.5366ZM22.6032 68L25.8032 56H54.1968L53.6279 53.8667L53.1302 52H26.8699L29.0032 44H50.9969L50.4991 42.1333L49.9302 40H30.0699L37.5366 12H42.4636L57.3968 68H22.6032Z" fill="#464646"/>
</svg>
